<mxfile host="app.diagrams.net" modified="2023-06-21T09:13:39.749Z" agent="Mozilla/5.0 (Windows NT 10.0; Win64; x64) AppleWebKit/537.36 (KHTML, like Gecko) Chrome/114.0.0.0 Safari/537.36" etag="7BizG0l6Sunqvd3xvsvk" version="21.5.0" type="github">
  <diagram id="C5RBs43oDa-KdzZeNtuy" name="Page-1">
    <mxGraphModel dx="1176" dy="538" grid="0" gridSize="10" guides="1" tooltips="1" connect="1" arrows="1" fold="1" page="1" pageScale="1" pageWidth="827" pageHeight="1169" math="0" shadow="0">
      <root>
        <mxCell id="WIyWlLk6GJQsqaUBKTNV-0" />
        <mxCell id="WIyWlLk6GJQsqaUBKTNV-1" parent="WIyWlLk6GJQsqaUBKTNV-0" />
        <mxCell id="pOo4DCoxOqDHQJTuq7mG-2" value="Card" style="swimlane;fontStyle=1;align=center;verticalAlign=top;childLayout=stackLayout;horizontal=1;startSize=26;horizontalStack=0;resizeParent=1;resizeParentMax=0;resizeLast=0;collapsible=1;marginBottom=0;whiteSpace=wrap;html=1;" parent="WIyWlLk6GJQsqaUBKTNV-1" vertex="1">
          <mxGeometry x="452" y="28" width="250" height="260" as="geometry" />
        </mxCell>
        <mxCell id="pOo4DCoxOqDHQJTuq7mG-3" value="- suit: String&lt;br&gt;- rank: String&lt;br&gt;- value: int&lt;br&gt;&lt;u&gt;- path: String&lt;/u&gt;&lt;br&gt;- frontImage: Image&lt;br&gt;- backImage: Image&lt;br&gt;- faceUp: boolean" style="text;strokeColor=none;fillColor=none;align=left;verticalAlign=top;spacingLeft=4;spacingRight=4;overflow=hidden;rotatable=0;points=[[0,0.5],[1,0.5]];portConstraint=eastwest;whiteSpace=wrap;html=1;" parent="pOo4DCoxOqDHQJTuq7mG-2" vertex="1">
          <mxGeometry y="26" width="250" height="114" as="geometry" />
        </mxCell>
        <mxCell id="pOo4DCoxOqDHQJTuq7mG-4" value="" style="line;strokeWidth=1;fillColor=none;align=left;verticalAlign=middle;spacingTop=-1;spacingLeft=3;spacingRight=3;rotatable=0;labelPosition=right;points=[];portConstraint=eastwest;strokeColor=inherit;" parent="pOo4DCoxOqDHQJTuq7mG-2" vertex="1">
          <mxGeometry y="140" width="250" height="8" as="geometry" />
        </mxCell>
        <mxCell id="pOo4DCoxOqDHQJTuq7mG-5" value="+ Card(suit: String, rank: String)&lt;br&gt;-&amp;nbsp; calculateValue(rank: String): int&lt;br&gt;+ getValue(): int&lt;br&gt;+ getCardImage(): Image&lt;br&gt;&lt;u&gt;+ setPath(PATH: String): void&lt;/u&gt;&lt;br&gt;+ flip(): void&lt;br&gt;+ isAce(): boolean" style="text;strokeColor=none;fillColor=none;align=left;verticalAlign=top;spacingLeft=4;spacingRight=4;overflow=hidden;rotatable=0;points=[[0,0.5],[1,0.5]];portConstraint=eastwest;whiteSpace=wrap;html=1;" parent="pOo4DCoxOqDHQJTuq7mG-2" vertex="1">
          <mxGeometry y="148" width="250" height="112" as="geometry" />
        </mxCell>
        <mxCell id="pOo4DCoxOqDHQJTuq7mG-6" value="Deck" style="swimlane;fontStyle=1;align=center;verticalAlign=top;childLayout=stackLayout;horizontal=1;startSize=26;horizontalStack=0;resizeParent=1;resizeParentMax=0;resizeLast=0;collapsible=1;marginBottom=0;whiteSpace=wrap;html=1;" parent="WIyWlLk6GJQsqaUBKTNV-1" vertex="1">
          <mxGeometry x="452" y="315" width="250" height="163" as="geometry" />
        </mxCell>
        <mxCell id="pOo4DCoxOqDHQJTuq7mG-7" value="&lt;div&gt;&lt;span style=&quot;background-color: initial;&quot;&gt;- cards: Card[]&lt;/span&gt;&lt;br&gt;&lt;/div&gt;&lt;div&gt;- currentCount: int&lt;/div&gt;" style="text;strokeColor=none;fillColor=none;align=left;verticalAlign=top;spacingLeft=4;spacingRight=4;overflow=hidden;rotatable=0;points=[[0,0.5],[1,0.5]];portConstraint=eastwest;whiteSpace=wrap;html=1;" parent="pOo4DCoxOqDHQJTuq7mG-6" vertex="1">
          <mxGeometry y="26" width="250" height="47" as="geometry" />
        </mxCell>
        <mxCell id="pOo4DCoxOqDHQJTuq7mG-8" value="" style="line;strokeWidth=1;fillColor=none;align=left;verticalAlign=middle;spacingTop=-1;spacingLeft=3;spacingRight=3;rotatable=0;labelPosition=right;points=[];portConstraint=eastwest;strokeColor=inherit;" parent="pOo4DCoxOqDHQJTuq7mG-6" vertex="1">
          <mxGeometry y="73" width="250" height="8" as="geometry" />
        </mxCell>
        <mxCell id="pOo4DCoxOqDHQJTuq7mG-9" value="&lt;div&gt;&lt;span style=&quot;background-color: initial;&quot;&gt;+ Deck()&lt;/span&gt;&lt;br&gt;&lt;/div&gt;&lt;div&gt;-&amp;nbsp; initializeDeck(): void&lt;/div&gt;&lt;div&gt;+ shuffle(): void&lt;/div&gt;&lt;div&gt;+ draw(): Card&lt;/div&gt;&lt;div&gt;&lt;br&gt;&lt;/div&gt;" style="text;strokeColor=none;fillColor=none;align=left;verticalAlign=top;spacingLeft=4;spacingRight=4;overflow=hidden;rotatable=0;points=[[0,0.5],[1,0.5]];portConstraint=eastwest;whiteSpace=wrap;html=1;" parent="pOo4DCoxOqDHQJTuq7mG-6" vertex="1">
          <mxGeometry y="81" width="250" height="82" as="geometry" />
        </mxCell>
        <mxCell id="pOo4DCoxOqDHQJTuq7mG-10" value="Player" style="swimlane;fontStyle=1;align=center;verticalAlign=top;childLayout=stackLayout;horizontal=1;startSize=26;horizontalStack=0;resizeParent=1;resizeParentMax=0;resizeLast=0;collapsible=1;marginBottom=0;whiteSpace=wrap;html=1;" parent="WIyWlLk6GJQsqaUBKTNV-1" vertex="1">
          <mxGeometry x="130" y="28" width="250" height="251" as="geometry" />
        </mxCell>
        <mxCell id="pOo4DCoxOqDHQJTuq7mG-11" value="&lt;div&gt;&lt;span style=&quot;background-color: initial;&quot;&gt;# handSum: int&lt;/span&gt;&lt;br&gt;&lt;/div&gt;&lt;div&gt;# aceCount: int&lt;/div&gt;&lt;div&gt;# numOfCards: int&lt;/div&gt;&lt;div&gt;# softHand; boolean&lt;/div&gt;&lt;div&gt;&amp;nbsp; &amp;nbsp;hand: Card[]&lt;/div&gt;&lt;div&gt;&lt;br&gt;&lt;/div&gt;" style="text;strokeColor=none;fillColor=none;align=left;verticalAlign=top;spacingLeft=4;spacingRight=4;overflow=hidden;rotatable=0;points=[[0,0.5],[1,0.5]];portConstraint=eastwest;whiteSpace=wrap;html=1;" parent="pOo4DCoxOqDHQJTuq7mG-10" vertex="1">
          <mxGeometry y="26" width="250" height="85" as="geometry" />
        </mxCell>
        <mxCell id="pOo4DCoxOqDHQJTuq7mG-12" value="" style="line;strokeWidth=1;fillColor=none;align=left;verticalAlign=middle;spacingTop=-1;spacingLeft=3;spacingRight=3;rotatable=0;labelPosition=right;points=[];portConstraint=eastwest;strokeColor=inherit;" parent="pOo4DCoxOqDHQJTuq7mG-10" vertex="1">
          <mxGeometry y="111" width="250" height="8" as="geometry" />
        </mxCell>
        <mxCell id="pOo4DCoxOqDHQJTuq7mG-13" value="&lt;div&gt;&lt;span style=&quot;background-color: initial;&quot;&gt;&amp;nbsp; &amp;nbsp;Player()&lt;/span&gt;&lt;br&gt;&lt;/div&gt;&lt;div&gt;+ takeCard(deck: Deck): void&lt;/div&gt;&lt;div&gt;# updateHandSum(card: Card): void&lt;/div&gt;&lt;div&gt;# updateHandSum(): void&lt;/div&gt;&lt;div&gt;+ getHandSum(): int&lt;/div&gt;&lt;div&gt;+ getHandSumStr(): String&lt;/div&gt;&lt;div&gt;+ getNumOfCards(): int&lt;/div&gt;&lt;div&gt;&lt;br&gt;&lt;/div&gt;" style="text;strokeColor=none;fillColor=none;align=left;verticalAlign=top;spacingLeft=4;spacingRight=4;overflow=hidden;rotatable=0;points=[[0,0.5],[1,0.5]];portConstraint=eastwest;whiteSpace=wrap;html=1;" parent="pOo4DCoxOqDHQJTuq7mG-10" vertex="1">
          <mxGeometry y="119" width="250" height="132" as="geometry" />
        </mxCell>
        <mxCell id="pOo4DCoxOqDHQJTuq7mG-14" value="Dealer" style="swimlane;fontStyle=1;align=center;verticalAlign=top;childLayout=stackLayout;horizontal=1;startSize=26;horizontalStack=0;resizeParent=1;resizeParentMax=0;resizeLast=0;collapsible=1;marginBottom=0;whiteSpace=wrap;html=1;" parent="WIyWlLk6GJQsqaUBKTNV-1" vertex="1">
          <mxGeometry x="130" y="335" width="250" height="120" as="geometry" />
        </mxCell>
        <mxCell id="pOo4DCoxOqDHQJTuq7mG-15" value="&lt;div&gt;&amp;nbsp; &amp;nbsp;hide: boolean&lt;/div&gt;&lt;div&gt;&lt;br&gt;&lt;/div&gt;" style="text;strokeColor=none;fillColor=none;align=left;verticalAlign=top;spacingLeft=4;spacingRight=4;overflow=hidden;rotatable=0;points=[[0,0.5],[1,0.5]];portConstraint=eastwest;whiteSpace=wrap;html=1;" parent="pOo4DCoxOqDHQJTuq7mG-14" vertex="1">
          <mxGeometry y="26" width="250" height="34" as="geometry" />
        </mxCell>
        <mxCell id="pOo4DCoxOqDHQJTuq7mG-16" value="" style="line;strokeWidth=1;fillColor=none;align=left;verticalAlign=middle;spacingTop=-1;spacingLeft=3;spacingRight=3;rotatable=0;labelPosition=right;points=[];portConstraint=eastwest;strokeColor=inherit;" parent="pOo4DCoxOqDHQJTuq7mG-14" vertex="1">
          <mxGeometry y="60" width="250" height="8" as="geometry" />
        </mxCell>
        <mxCell id="pOo4DCoxOqDHQJTuq7mG-17" value="&lt;div&gt;&amp;nbsp; &amp;nbsp;Dealer&lt;/div&gt;&lt;div&gt;+ getHiddenHandSum(): String&lt;/div&gt;" style="text;strokeColor=none;fillColor=none;align=left;verticalAlign=top;spacingLeft=4;spacingRight=4;overflow=hidden;rotatable=0;points=[[0,0.5],[1,0.5]];portConstraint=eastwest;whiteSpace=wrap;html=1;" parent="pOo4DCoxOqDHQJTuq7mG-14" vertex="1">
          <mxGeometry y="68" width="250" height="52" as="geometry" />
        </mxCell>
        <mxCell id="pOo4DCoxOqDHQJTuq7mG-19" value="" style="endArrow=block;endSize=16;endFill=0;html=1;rounded=0;exitX=0.5;exitY=0;exitDx=0;exitDy=0;exitPerimeter=0;entryX=0.5;entryY=0.991;entryDx=0;entryDy=0;entryPerimeter=0;" parent="WIyWlLk6GJQsqaUBKTNV-1" source="pOo4DCoxOqDHQJTuq7mG-14" edge="1" target="pOo4DCoxOqDHQJTuq7mG-13">
          <mxGeometry width="160" relative="1" as="geometry">
            <mxPoint x="264" y="740" as="sourcePoint" />
            <mxPoint x="252" y="278" as="targetPoint" />
            <Array as="points" />
          </mxGeometry>
        </mxCell>
      </root>
    </mxGraphModel>
  </diagram>
</mxfile>
